<mxfile host="Electron" modified="2025-10-09T03:21:45.762Z" agent="Mozilla/5.0 (Windows NT 10.0; Win64; x64) AppleWebKit/537.36 (KHTML, like Gecko) draw.io/24.4.8 Chrome/124.0.6367.207 Electron/30.0.6 Safari/537.36" etag="J2YKksEW856Ty6XHS5nL" version="24.4.8" type="device">
  <diagram name="第 1 页" id="F_rhyEtw_8zC8oVCm1om">
    <mxGraphModel dx="1436" dy="900" grid="1" gridSize="10" guides="1" tooltips="1" connect="1" arrows="1" fold="1" page="1" pageScale="1" pageWidth="1169" pageHeight="827" math="0" shadow="0">
      <root>
        <mxCell id="0" />
        <mxCell id="1" parent="0" />
        <mxCell id="wDk5EvSkdMVQl-0X2oP3-8" value="" style="ellipse;whiteSpace=wrap;html=1;aspect=fixed;rotation=-90;" parent="1" vertex="1">
          <mxGeometry x="310" y="533" width="80" height="80" as="geometry" />
        </mxCell>
        <mxCell id="wDk5EvSkdMVQl-0X2oP3-9" value="" style="ellipse;whiteSpace=wrap;html=1;aspect=fixed;rotation=-90;" parent="1" vertex="1">
          <mxGeometry x="420" y="533" width="80" height="80" as="geometry" />
        </mxCell>
        <mxCell id="wDk5EvSkdMVQl-0X2oP3-10" value="" style="ellipse;whiteSpace=wrap;html=1;aspect=fixed;rotation=-90;" parent="1" vertex="1">
          <mxGeometry x="530" y="533" width="80" height="80" as="geometry" />
        </mxCell>
        <mxCell id="wDk5EvSkdMVQl-0X2oP3-13" value="" style="ellipse;whiteSpace=wrap;html=1;aspect=fixed;rotation=-90;" parent="1" vertex="1">
          <mxGeometry x="750" y="533" width="80" height="80" as="geometry" />
        </mxCell>
        <mxCell id="wDk5EvSkdMVQl-0X2oP3-14" value="" style="ellipse;whiteSpace=wrap;html=1;aspect=fixed;rotation=-90;" parent="1" vertex="1">
          <mxGeometry x="90" y="533" width="80" height="80" as="geometry" />
        </mxCell>
        <mxCell id="wDk5EvSkdMVQl-0X2oP3-15" value="" style="ellipse;whiteSpace=wrap;html=1;aspect=fixed;rotation=-90;" parent="1" vertex="1">
          <mxGeometry x="200" y="533" width="80" height="80" as="geometry" />
        </mxCell>
        <mxCell id="wDk5EvSkdMVQl-0X2oP3-16" value="" style="ellipse;whiteSpace=wrap;html=1;aspect=fixed;flipH=1;flipV=1;rotation=-90;" parent="1" vertex="1">
          <mxGeometry x="250" y="350" width="80" height="80" as="geometry" />
        </mxCell>
        <mxCell id="wDk5EvSkdMVQl-0X2oP3-17" value="" style="ellipse;whiteSpace=wrap;html=1;aspect=fixed;flipH=1;flipV=1;rotation=-90;" parent="1" vertex="1">
          <mxGeometry x="360" y="350" width="80" height="80" as="geometry" />
        </mxCell>
        <mxCell id="wDk5EvSkdMVQl-0X2oP3-18" value="" style="ellipse;whiteSpace=wrap;html=1;aspect=fixed;flipH=1;flipV=1;rotation=-90;" parent="1" vertex="1">
          <mxGeometry x="580" y="350" width="80" height="80" as="geometry" />
        </mxCell>
        <mxCell id="wDk5EvSkdMVQl-0X2oP3-74" value="" style="endArrow=none;html=1;rounded=0;exitX=1;exitY=0.5;exitDx=0;exitDy=0;entryX=0;entryY=0.5;entryDx=0;entryDy=0;" parent="1" source="wDk5EvSkdMVQl-0X2oP3-14" target="wDk5EvSkdMVQl-0X2oP3-16" edge="1">
          <mxGeometry width="50" height="50" relative="1" as="geometry">
            <mxPoint x="250" y="733" as="sourcePoint" />
            <mxPoint x="140" y="623" as="targetPoint" />
          </mxGeometry>
        </mxCell>
        <mxCell id="wDk5EvSkdMVQl-0X2oP3-75" value="" style="endArrow=none;html=1;rounded=0;exitX=1;exitY=0.5;exitDx=0;exitDy=0;entryX=0;entryY=0.5;entryDx=0;entryDy=0;" parent="1" source="wDk5EvSkdMVQl-0X2oP3-15" target="wDk5EvSkdMVQl-0X2oP3-16" edge="1">
          <mxGeometry width="50" height="50" relative="1" as="geometry">
            <mxPoint x="140" y="543" as="sourcePoint" />
            <mxPoint x="410" y="440" as="targetPoint" />
          </mxGeometry>
        </mxCell>
        <mxCell id="wDk5EvSkdMVQl-0X2oP3-76" value="" style="endArrow=none;html=1;rounded=0;exitX=1;exitY=0.5;exitDx=0;exitDy=0;entryX=0;entryY=0.5;entryDx=0;entryDy=0;" parent="1" source="wDk5EvSkdMVQl-0X2oP3-8" target="wDk5EvSkdMVQl-0X2oP3-16" edge="1">
          <mxGeometry width="50" height="50" relative="1" as="geometry">
            <mxPoint x="250" y="543" as="sourcePoint" />
            <mxPoint x="410" y="440" as="targetPoint" />
          </mxGeometry>
        </mxCell>
        <mxCell id="wDk5EvSkdMVQl-0X2oP3-77" value="" style="endArrow=none;html=1;rounded=0;exitX=1;exitY=0.5;exitDx=0;exitDy=0;entryX=0;entryY=0.5;entryDx=0;entryDy=0;" parent="1" source="wDk5EvSkdMVQl-0X2oP3-9" target="wDk5EvSkdMVQl-0X2oP3-16" edge="1">
          <mxGeometry width="50" height="50" relative="1" as="geometry">
            <mxPoint x="360" y="543" as="sourcePoint" />
            <mxPoint x="410" y="440" as="targetPoint" />
          </mxGeometry>
        </mxCell>
        <mxCell id="wDk5EvSkdMVQl-0X2oP3-78" value="" style="endArrow=none;html=1;rounded=0;exitX=1;exitY=0.5;exitDx=0;exitDy=0;entryX=0;entryY=0.5;entryDx=0;entryDy=0;" parent="1" source="wDk5EvSkdMVQl-0X2oP3-10" target="wDk5EvSkdMVQl-0X2oP3-16" edge="1">
          <mxGeometry width="50" height="50" relative="1" as="geometry">
            <mxPoint x="470" y="543" as="sourcePoint" />
            <mxPoint x="410" y="440" as="targetPoint" />
          </mxGeometry>
        </mxCell>
        <mxCell id="wDk5EvSkdMVQl-0X2oP3-82" value="" style="endArrow=none;html=1;rounded=0;exitX=1;exitY=0.5;exitDx=0;exitDy=0;entryX=0;entryY=0.5;entryDx=0;entryDy=0;" parent="1" source="wDk5EvSkdMVQl-0X2oP3-13" target="wDk5EvSkdMVQl-0X2oP3-16" edge="1">
          <mxGeometry width="50" height="50" relative="1" as="geometry">
            <mxPoint x="800" y="543" as="sourcePoint" />
            <mxPoint x="410" y="442" as="targetPoint" />
          </mxGeometry>
        </mxCell>
        <mxCell id="wDk5EvSkdMVQl-0X2oP3-83" value="" style="endArrow=none;html=1;rounded=0;exitX=1;exitY=0.5;exitDx=0;exitDy=0;entryX=0;entryY=0.5;entryDx=0;entryDy=0;" parent="1" source="wDk5EvSkdMVQl-0X2oP3-14" target="wDk5EvSkdMVQl-0X2oP3-17" edge="1">
          <mxGeometry width="50" height="50" relative="1" as="geometry">
            <mxPoint x="140" y="543" as="sourcePoint" />
            <mxPoint x="410" y="440" as="targetPoint" />
          </mxGeometry>
        </mxCell>
        <mxCell id="wDk5EvSkdMVQl-0X2oP3-84" value="" style="endArrow=none;html=1;rounded=0;exitX=1;exitY=0.5;exitDx=0;exitDy=0;entryX=0;entryY=0.5;entryDx=0;entryDy=0;" parent="1" source="wDk5EvSkdMVQl-0X2oP3-15" target="wDk5EvSkdMVQl-0X2oP3-17" edge="1">
          <mxGeometry width="50" height="50" relative="1" as="geometry">
            <mxPoint x="140" y="543" as="sourcePoint" />
            <mxPoint x="520" y="440" as="targetPoint" />
          </mxGeometry>
        </mxCell>
        <mxCell id="wDk5EvSkdMVQl-0X2oP3-85" value="" style="endArrow=none;html=1;rounded=0;exitX=1;exitY=0.5;exitDx=0;exitDy=0;entryX=0;entryY=0.5;entryDx=0;entryDy=0;" parent="1" source="wDk5EvSkdMVQl-0X2oP3-8" target="wDk5EvSkdMVQl-0X2oP3-17" edge="1">
          <mxGeometry width="50" height="50" relative="1" as="geometry">
            <mxPoint x="250" y="543" as="sourcePoint" />
            <mxPoint x="520" y="440" as="targetPoint" />
          </mxGeometry>
        </mxCell>
        <mxCell id="wDk5EvSkdMVQl-0X2oP3-86" value="" style="endArrow=none;html=1;rounded=0;exitX=1;exitY=0.5;exitDx=0;exitDy=0;entryX=0;entryY=0.5;entryDx=0;entryDy=0;" parent="1" source="wDk5EvSkdMVQl-0X2oP3-9" target="wDk5EvSkdMVQl-0X2oP3-17" edge="1">
          <mxGeometry width="50" height="50" relative="1" as="geometry">
            <mxPoint x="360" y="543" as="sourcePoint" />
            <mxPoint x="520" y="440" as="targetPoint" />
          </mxGeometry>
        </mxCell>
        <mxCell id="wDk5EvSkdMVQl-0X2oP3-87" value="" style="endArrow=none;html=1;rounded=0;exitX=1;exitY=0.5;exitDx=0;exitDy=0;entryX=0;entryY=0.5;entryDx=0;entryDy=0;" parent="1" source="wDk5EvSkdMVQl-0X2oP3-10" target="wDk5EvSkdMVQl-0X2oP3-17" edge="1">
          <mxGeometry width="50" height="50" relative="1" as="geometry">
            <mxPoint x="470" y="543" as="sourcePoint" />
            <mxPoint x="520" y="440" as="targetPoint" />
          </mxGeometry>
        </mxCell>
        <mxCell id="wDk5EvSkdMVQl-0X2oP3-90" value="" style="endArrow=none;html=1;rounded=0;exitX=1;exitY=0.5;exitDx=0;exitDy=0;entryX=0;entryY=0.5;entryDx=0;entryDy=0;" parent="1" source="wDk5EvSkdMVQl-0X2oP3-13" target="wDk5EvSkdMVQl-0X2oP3-17" edge="1">
          <mxGeometry width="50" height="50" relative="1" as="geometry">
            <mxPoint x="800" y="543" as="sourcePoint" />
            <mxPoint x="520" y="440" as="targetPoint" />
          </mxGeometry>
        </mxCell>
        <mxCell id="wDk5EvSkdMVQl-0X2oP3-91" value="" style="endArrow=none;html=1;rounded=0;exitX=1;exitY=0.5;exitDx=0;exitDy=0;entryX=0;entryY=0.5;entryDx=0;entryDy=0;" parent="1" source="wDk5EvSkdMVQl-0X2oP3-14" target="wDk5EvSkdMVQl-0X2oP3-18" edge="1">
          <mxGeometry width="50" height="50" relative="1" as="geometry">
            <mxPoint x="140" y="543" as="sourcePoint" />
            <mxPoint x="410" y="440" as="targetPoint" />
          </mxGeometry>
        </mxCell>
        <mxCell id="wDk5EvSkdMVQl-0X2oP3-92" value="" style="endArrow=none;html=1;rounded=0;exitX=1;exitY=0.5;exitDx=0;exitDy=0;entryX=0;entryY=0.5;entryDx=0;entryDy=0;" parent="1" source="wDk5EvSkdMVQl-0X2oP3-15" target="wDk5EvSkdMVQl-0X2oP3-18" edge="1">
          <mxGeometry width="50" height="50" relative="1" as="geometry">
            <mxPoint x="140" y="543" as="sourcePoint" />
            <mxPoint x="630" y="440" as="targetPoint" />
          </mxGeometry>
        </mxCell>
        <mxCell id="wDk5EvSkdMVQl-0X2oP3-93" value="" style="endArrow=none;html=1;rounded=0;exitX=1;exitY=0.5;exitDx=0;exitDy=0;entryX=0;entryY=0.5;entryDx=0;entryDy=0;" parent="1" source="wDk5EvSkdMVQl-0X2oP3-8" target="wDk5EvSkdMVQl-0X2oP3-18" edge="1">
          <mxGeometry width="50" height="50" relative="1" as="geometry">
            <mxPoint x="250" y="543" as="sourcePoint" />
            <mxPoint x="630" y="440" as="targetPoint" />
          </mxGeometry>
        </mxCell>
        <mxCell id="wDk5EvSkdMVQl-0X2oP3-94" value="" style="endArrow=none;html=1;rounded=0;exitX=1;exitY=0.5;exitDx=0;exitDy=0;entryX=0;entryY=0.5;entryDx=0;entryDy=0;" parent="1" source="wDk5EvSkdMVQl-0X2oP3-9" target="wDk5EvSkdMVQl-0X2oP3-18" edge="1">
          <mxGeometry width="50" height="50" relative="1" as="geometry">
            <mxPoint x="360" y="543" as="sourcePoint" />
            <mxPoint x="630" y="440" as="targetPoint" />
          </mxGeometry>
        </mxCell>
        <mxCell id="wDk5EvSkdMVQl-0X2oP3-95" value="" style="endArrow=none;html=1;rounded=0;exitX=1;exitY=0.5;exitDx=0;exitDy=0;entryX=0;entryY=0.5;entryDx=0;entryDy=0;" parent="1" source="wDk5EvSkdMVQl-0X2oP3-10" target="wDk5EvSkdMVQl-0X2oP3-18" edge="1">
          <mxGeometry width="50" height="50" relative="1" as="geometry">
            <mxPoint x="470" y="543" as="sourcePoint" />
            <mxPoint x="630" y="440" as="targetPoint" />
          </mxGeometry>
        </mxCell>
        <mxCell id="wDk5EvSkdMVQl-0X2oP3-98" value="" style="endArrow=none;html=1;rounded=0;exitX=1;exitY=0.5;exitDx=0;exitDy=0;entryX=0;entryY=0.5;entryDx=0;entryDy=0;" parent="1" source="wDk5EvSkdMVQl-0X2oP3-13" target="wDk5EvSkdMVQl-0X2oP3-18" edge="1">
          <mxGeometry width="50" height="50" relative="1" as="geometry">
            <mxPoint x="800" y="543" as="sourcePoint" />
            <mxPoint x="630" y="440" as="targetPoint" />
          </mxGeometry>
        </mxCell>
        <mxCell id="wDk5EvSkdMVQl-0X2oP3-99" value="&lt;font style=&quot;font-size: 22px;&quot;&gt;Input layer(1460)&lt;/font&gt;" style="text;html=1;align=left;verticalAlign=middle;whiteSpace=wrap;rounded=0;fontFamily=Times New Roman;" parent="1" vertex="1">
          <mxGeometry x="860" y="562" width="170" height="30" as="geometry" />
        </mxCell>
        <mxCell id="wDk5EvSkdMVQl-0X2oP3-100" value="&lt;font style=&quot;font-size: 22px;&quot;&gt;Hidden layer(24)&lt;/font&gt;" style="text;html=1;align=left;verticalAlign=middle;whiteSpace=wrap;rounded=0;fontFamily=Times New Roman;" parent="1" vertex="1">
          <mxGeometry x="860" y="375" width="170" height="30" as="geometry" />
        </mxCell>
        <mxCell id="wDk5EvSkdMVQl-0X2oP3-101" value="&lt;font style=&quot;font-size: 22px;&quot;&gt;Output layer(1)&lt;/font&gt;" style="text;html=1;align=left;verticalAlign=middle;whiteSpace=wrap;rounded=0;fontFamily=Times New Roman;" parent="1" vertex="1">
          <mxGeometry x="870" y="200" width="140" height="30" as="geometry" />
        </mxCell>
        <mxCell id="ndGWs0mZoFZzjWgfSYva-1" value="&lt;font style=&quot;font-size: 20px;&quot;&gt;•••&lt;/font&gt;" style="text;html=1;align=center;verticalAlign=middle;whiteSpace=wrap;rounded=0;" vertex="1" parent="1">
          <mxGeometry x="650" y="562" width="60" height="30" as="geometry" />
        </mxCell>
        <mxCell id="ndGWs0mZoFZzjWgfSYva-2" value="&lt;font style=&quot;font-size: 20px;&quot;&gt;•••&lt;/font&gt;" style="text;html=1;align=center;verticalAlign=middle;whiteSpace=wrap;rounded=0;" vertex="1" parent="1">
          <mxGeometry x="480" y="375" width="60" height="30" as="geometry" />
        </mxCell>
        <mxCell id="ndGWs0mZoFZzjWgfSYva-4" value="" style="ellipse;whiteSpace=wrap;html=1;aspect=fixed;flipH=1;flipV=1;rotation=-90;" vertex="1" parent="1">
          <mxGeometry x="420" y="175" width="80" height="80" as="geometry" />
        </mxCell>
        <mxCell id="ndGWs0mZoFZzjWgfSYva-5" value="" style="endArrow=none;html=1;rounded=0;exitX=1;exitY=0.5;exitDx=0;exitDy=0;entryX=0;entryY=0.5;entryDx=0;entryDy=0;" edge="1" parent="1" source="wDk5EvSkdMVQl-0X2oP3-16" target="ndGWs0mZoFZzjWgfSYva-4">
          <mxGeometry width="50" height="50" relative="1" as="geometry">
            <mxPoint x="360" y="333" as="sourcePoint" />
            <mxPoint x="520" y="230" as="targetPoint" />
          </mxGeometry>
        </mxCell>
        <mxCell id="ndGWs0mZoFZzjWgfSYva-6" value="" style="endArrow=none;html=1;rounded=0;exitX=1;exitY=0.5;exitDx=0;exitDy=0;entryX=0;entryY=0.5;entryDx=0;entryDy=0;" edge="1" parent="1" source="wDk5EvSkdMVQl-0X2oP3-17" target="ndGWs0mZoFZzjWgfSYva-4">
          <mxGeometry width="50" height="50" relative="1" as="geometry">
            <mxPoint x="300" y="360" as="sourcePoint" />
            <mxPoint x="470" y="265" as="targetPoint" />
          </mxGeometry>
        </mxCell>
        <mxCell id="ndGWs0mZoFZzjWgfSYva-7" value="" style="endArrow=none;html=1;rounded=0;exitX=1;exitY=0.5;exitDx=0;exitDy=0;entryX=0;entryY=0.5;entryDx=0;entryDy=0;" edge="1" parent="1" source="wDk5EvSkdMVQl-0X2oP3-18" target="ndGWs0mZoFZzjWgfSYva-4">
          <mxGeometry width="50" height="50" relative="1" as="geometry">
            <mxPoint x="410" y="360" as="sourcePoint" />
            <mxPoint x="470" y="265" as="targetPoint" />
          </mxGeometry>
        </mxCell>
      </root>
    </mxGraphModel>
  </diagram>
</mxfile>
